<?xml version="1.0" encoding="utf-8"?>
<!-- Generator: Adobe Illustrator 15.0.2, SVG Export Plug-In . SVG Version: 6.00 Build 0)  -->
<!DOCTYPE svg PUBLIC "-//W3C//DTD SVG 1.1//EN" "http://www.w3.org/Graphics/SVG/1.1/DTD/svg11.dtd">
<svg version="1.1" id="Layer_1" xmlns="http://www.w3.org/2000/svg" xmlns:xlink="http://www.w3.org/1999/xlink" x="0px" y="0px"
	 width="542.875px" height="91.157px" viewBox="0 0 542.875 91.157" enable-background="new 0 0 542.875 91.157"
	 xml:space="preserve">
<g>
	<path fill="#FFFFFF" d="M0,70.117V1.276h43.45v10.308H12.009v18.392h29.739V40.33H12.15v19.48h32.671v10.307H0z"/>
	<path fill="#FFFFFF" d="M57.635,70.117V37.21c0-3.341-0.158-6.776-0.473-10.308l-0.426-5.295h12.34v6.336
		c1.197-2.206,3.033-4.02,5.509-5.438c2.474-1.418,5.16-2.128,8.062-2.128c3.12,0,5.973,0.757,8.557,2.27
		c2.585,1.514,4.571,3.752,5.958,6.714c4.161-5.988,9.409-8.983,15.745-8.983c5.925,0,10.378,1.781,13.356,5.343
		c2.979,3.562,4.468,8.447,4.468,14.657v29.739h-11.726v-29.03c0-1.292-0.11-2.536-0.331-3.734s-0.576-2.389-1.063-3.57
		c-0.489-1.182-1.214-2.127-2.176-2.837c-0.961-0.709-2.104-1.063-3.428-1.063c-3.468,0-6.319,1.323-8.557,3.971
		c-2.239,2.648-3.357,5.58-3.357,8.795v27.47H88.367V40.473c0-0.946-0.056-1.852-0.165-2.719c-0.111-0.867-0.324-1.797-0.639-2.79
		c-0.315-0.992-0.733-1.852-1.253-2.577c-0.521-0.724-1.246-1.323-2.175-1.796c-0.931-0.474-1.994-0.709-3.192-0.709
		c-3.309,0-6.067,1.08-8.273,3.238c-2.206,2.159-3.31,4.674-3.31,7.541v29.456H57.635z"/>
	<path fill="#FFFFFF" d="M143.732,11.584V1.276h11.348v10.308H143.732z M143.78,70.117v-48.51h11.3v48.51H143.78z"/>
	<path fill="#FFFFFF" d="M168.508,70.117V1.229h11.583v68.888H168.508z"/>
	<path fill="#FFFFFF" d="M198.673,91.157l-4.917-7.942c4.38-1.703,7.666-3.461,9.857-5.272c2.19-1.813,3.664-3.995,4.421-6.549
		l0.662-2.364l-20.614-47.422h12.198l14.041,34.799l12.104-34.799h11.962l-19.669,51.157c-1.354,3.341-3.137,6.296-5.343,8.865
		c-2.206,2.568-4.508,4.578-6.902,6.028C204.077,89.107,201.478,90.274,198.673,91.157z"/>
	<path fill="#FFFFFF" d="M307.465,71.205c-10.749,0-19.219-3.239-25.414-9.717c-6.193-6.478-9.289-15.185-9.289-26.122
		c0-10.654,3.112-19.211,9.337-25.673C288.324,3.231,296.826,0,307.607,0c10.432,0,18.73,3.224,24.893,9.669
		c6.163,6.446,9.244,15.012,9.244,25.697c0,10.969-3.042,19.685-9.125,26.146C326.535,67.974,318.149,71.205,307.465,71.205z
		 M307.182,60.945c7.028,0,12.37-2.215,16.027-6.644c3.656-4.428,5.484-10.74,5.484-18.936c0-7.943-1.828-14.113-5.484-18.51
		c-3.657-4.397-8.936-6.597-15.839-6.597c-6.966,0-12.315,2.199-16.051,6.597c-3.735,4.396-5.603,10.566-5.603,18.51
		c0,8.227,1.812,14.547,5.437,18.959C294.778,58.739,300.121,60.945,307.182,60.945z"/>
	<path fill="#FFFFFF" d="M353.469,70.117V1.229h11.584v68.888H353.469z"/>
	<path fill="#FFFFFF" d="M378.339,11.584V1.276h11.348v10.308H378.339z M378.386,70.117v-48.51h11.301v48.51H378.386z"/>
	<path fill="#FFFFFF" d="M417.63,70.117l-20.426-48.51h13.049c8.385,22.537,12.782,34.343,13.192,35.413
		c2.489-6.776,6.729-18.582,12.718-35.413h12.719l-20.614,48.51H417.63z"/>
	<path fill="#FFFFFF" d="M481.128,71.205c-8.165,0-14.603-2.332-19.314-6.998c-4.713-4.664-7.068-10.764-7.068-18.298
		c0-3.404,0.565-6.634,1.701-9.691c1.134-3.058,2.735-5.77,4.8-8.133c2.064-2.364,4.68-4.239,7.848-5.627
		c3.168-1.386,6.674-2.08,10.521-2.08c3.845,0,7.202,0.662,10.07,1.986s5.138,3.175,6.809,5.556c1.671,2.38,2.907,5.051,3.711,8.014
		s1.206,6.24,1.206,9.834c0,0.915-0.078,1.607-0.236,2.08h-34.042c0.188,4.729,1.632,8.228,4.326,10.497
		c2.695,2.27,6.281,3.404,10.757,3.404c5.231,0,10.338-1.733,15.318-5.201l3.167,8.511c-3.057,2.111-6.138,3.664-9.242,4.657
		C488.353,70.709,484.91,71.205,481.128,71.205z M467.273,40.047h24.113c-0.567-3.435-1.843-6.067-3.83-7.896
		c-1.986-1.828-4.413-2.742-7.281-2.742c-3.373,0-6.193,0.945-8.463,2.836C469.543,34.137,468.029,36.737,467.273,40.047z"/>
	<path fill="#FFFFFF" d="M514.317,70.117V33.9c0-1.892-0.078-3.861-0.236-5.91c-0.157-2.049-0.315-3.624-0.473-4.729l-0.236-1.654
		h12.481v6.383c1.923-2.521,3.838-4.421,5.744-5.697c1.907-1.277,4.06-1.915,6.454-1.915c1.419,0,3.026,0.236,4.823,0.71v10.26
		c-2.113-0.693-4.066-1.041-5.863-1.041c-3.247,0-5.894,1.057-7.942,3.168c-2.05,2.112-3.072,5.17-3.072,9.173v27.47H514.317z"/>
</g>
</svg>
